<?xml version="1.0" standalone="no"?>
<!DOCTYPE svg PUBLIC "-//W3C//DTD SVG 20010904//EN"
 "http://www.w3.org/TR/2001/REC-SVG-20010904/DTD/svg10.dtd">
<svg version="1.0" xmlns="http://www.w3.org/2000/svg"
 width="1049.000000pt" height="1049.000000pt" viewBox="0 0 1049.000000 1049.000000"
 preserveAspectRatio="xMidYMid meet">
<metadata>
Created by potrace 1.11, written by Peter Selinger 2001-2013
</metadata>
<g transform="translate(0.000000,1049.000000) scale(0.100000,-0.100000)"
fill="#000000" stroke="none">
<path d="M5550 8444 c-434 -60 -1510 -315 -1910 -452 -185 -64 -290 -135 -290
-198 0 -62 31 -93 250 -244 169 -117 261 -193 372 -308 87 -90 217 -257 252
-324 l19 -36 -425 -448 c-528 -557 -604 -624 -711 -624 -88 0 -117 27 -206
194 -28 54 -74 131 -101 171 -275 407 -795 690 -1313 712 l-127 6 0 -39 c0
-148 46 -449 101 -669 115 -455 334 -739 717 -930 116 -58 116 -59 24 -82
-108 -26 -269 -128 -376 -237 -212 -215 -346 -528 -417 -977 -22 -134 -33
-488 -17 -504 12 -13 209 16 351 52 347 86 575 194 735 347 86 82 120 131 188
267 78 157 135 242 214 320 162 159 300 163 487 14 226 -181 477 -413 958
-885 224 -221 281 -268 421 -353 261 -157 607 -268 977 -312 39 -5 57 -12 57
-21 0 -22 -58 -159 -112 -263 -90 -173 -191 -316 -346 -488 -85 -94 -90 -86
63 -103 312 -34 629 25 940 175 419 203 720 514 892 922 l48 115 155 78 c284
142 525 292 750 466 133 103 386 350 484 474 194 244 419 647 463 828 22 91
21 301 -1 405 -71 328 -263 637 -615 987 -357 356 -785 666 -1220 885 l-146
73 -68 97 c-109 153 -252 318 -413 475 -247 241 -400 354 -566 416 -68 25 -85
27 -253 30 -118 2 -216 -2 -285 -12z m2311 -2602 c306 -80 442 -433 270 -700
-96 -147 -285 -232 -453 -202 -380 68 -523 522 -248 790 112 109 276 152 431
112z"/>
</g>
</svg>
